PathFileType	4	(X/Y/Z)	 s08c0301.trc
DataRate	CameraRate	NumFrames	NumMarkers	Units	OrigDataRate	OrigDataStartFrame	OrigNumFrames
200	200	4	50	mm	200	1501	2000
Frame#	Time	racr			lacr			c7			jug			rlel			rdr			llel			ldr			s2			lic			ric			lasi			rasi			rpsi			lpsi			rgt			lgt			rth1			rth2			rth3			rth4			rlfc			rmfc			rsh1			rsh2			rsh3			rsh4			rlmal			rmmal			rcal			rtoe			rmt5			lth1			lth2			lth4			lth3			llfc			lmfc			llmal			lmmal			lcal			lmt5			lsh1			lsh2			lsh3			lsh4			ltoe			SBIKE			LBIKE			RBIKE			
		X1	Y1	Z1	X2	Y2	Z2	X3	Y3	Z3	X4	Y4	Z4	X5	Y5	Z5	X6	Y6	Z6	X7	Y7	Z7	X8	Y8	Z8	X9	Y9	Z9	X10	Y10	Z10	X11	Y11	Z11	X12	Y12	Z12	X13	Y13	Z13	X14	Y14	Z14	X15	Y15	Z15	X16	Y16	Z16	X17	Y17	Z17	X18	Y18	Z18	X19	Y19	Z19	X20	Y20	Z20	X21	Y21	Z21	X22	Y22	Z22	X23	Y23	Z23	X24	Y24	Z24	X25	Y25	Z25	X26	Y26	Z26	X27	Y27	Z27	X28	Y28	Z28	X29	Y29	Z29	X30	Y30	Z30	X31	Y31	Z31	X32	Y32	Z32	X33	Y33	Z33	X34	Y34	Z34	X35	Y35	Z35	X36	Y36	Z36	X37	Y37	Z37	X38	Y38	Z38	X39	Y39	Z39	X40	Y40	Z40	X41	Y41	Z41	X42	Y42	Z42	X43	Y43	Z43	X44	Y44	Z44	X45	Y45	Z45	X46	Y46	Z46	X47	Y47	Z47	X48	Y48	Z48	X49	Y49	Z49	X50	Y50	Z50	
1501	7.5050	554.580999	1379.756619	-75.887799	548.185661	1386.014535	-412.255153	532.108649	1453.412699	-241.557637	493.090137	1300.514587	-237.958826	625.914018	1136.080748	9.589544	802.852569	884.297983	-45.516099	651.887648	1141.403945	-460.263898	813.245442	889.957355	-395.553010	-25.351532	1213.210768	-220.017927	147.887028	1216.782347	-383.367776	149.670884	1202.761270	-62.083877	156.026000	1168.642540	-325.236699	165.550261	1137.122323	-85.979581	12.939375	1246.720540	-164.442228	9.354034	1257.979004	-258.335305	43.099620	1086.148593	-33.082742	93.262819	1140.108802	-417.007901	110.977937	921.839434	-17.946288	164.941816	850.755378	-19.176406	177.098273	765.294099	-36.518194	199.249688	865.439146	-25.408107	230.779516	664.825038	-59.029882	212.584546	651.798098	-167.928589	179.744585	544.104027	-25.860274	196.508851	457.105592	-40.617196	167.435068	375.792152	-47.623079	227.533246	458.048162	-67.801878	151.321035	256.251298	-56.097022	173.117551	275.844231	-142.681590	77.799469	248.712734	-106.359064	357.567706	148.649277	-95.771143	261.847980	144.752265	-32.376184	198.248751	1080.874749	-411.773334	284.848649	1075.671016	-404.016425	295.258436	1105.430550	-383.813547	358.042927	1029.206938	-416.869543	464.024983	943.918582	-392.942695	467.201389	913.672387	-280.188031	235.184142	593.782743	-392.137896	261.785525	606.307904	-308.350421	159.107295	580.073891	-355.634290	354.895129	488.915314	-411.146563	408.611645	833.040159	-412.039602	376.077602	756.767256	-398.701287	307.762906	698.348711	-399.942531	393.309158	743.583368	-359.525413	437.362442	504.291228	-339.767378	-135.155254	943.201970	-222.065069	26.377010	84.345548	-426.185725	17.359773	80.320136	-27.988957	
1502	7.5100	554.513564	1379.722091	-75.827162	548.158615	1385.911801	-412.083852	532.007240	1453.477747	-241.389970	492.958661	1300.614803	-237.867350	626.035886	1136.162402	9.367654	802.867700	884.295948	-45.530880	652.013960	1141.436411	-460.259633	813.269487	889.896283	-395.570319	-25.765406	1213.814905	-220.514688	147.834556	1216.997977	-383.399125	148.632912	1203.675011	-62.301834	155.504053	1168.897665	-325.123831	164.712878	1137.917362	-85.799947	12.500874	1247.412961	-165.053301	9.108995	1258.498445	-259.026350	42.196327	1086.932082	-33.145437	93.181814	1140.433251	-417.139141	111.044425	922.557425	-17.996518	165.449479	851.907301	-19.234121	178.126131	766.799786	-37.030225	199.717113	866.811619	-25.145458	232.266208	666.426844	-59.127311	214.425742	653.504860	-168.000315	178.918595	546.402634	-25.881852	193.385476	459.085879	-40.966244	162.186340	378.510215	-47.967028	224.272097	459.253344	-68.508134	142.385720	259.807231	-55.606957	164.026592	279.438459	-142.231562	69.097843	252.088070	-106.615576	348.344552	150.746247	-95.883014	252.581080	147.287263	-32.479139	198.195317	1081.467236	-411.607847	284.783082	1076.417539	-403.434767	294.976690	1106.080954	-382.917540	358.034045	1030.153064	-416.071458	464.054274	944.286433	-391.619705	467.286465	913.999262	-279.394904	242.220435	589.525376	-391.938952	268.362038	602.464532	-308.058793	166.246058	574.495475	-355.606159	363.686763	486.826197	-411.094131	410.692212	832.346496	-411.317648	379.886333	755.486857	-398.320589	312.699404	695.474735	-399.473791	397.211607	742.733590	-359.293560	445.948163	503.643560	-339.622834	-135.142420	943.194702	-222.047832	26.358084	84.501387	-426.296901	17.379712	80.323155	-27.980919	
1503	7.5150	554.380768	1379.679693	-75.715953	548.076007	1385.745666	-411.810023	531.818269	1453.535027	-241.159906	492.691938	1300.611179	-237.631871	626.078703	1136.250832	9.193099	802.872004	884.298965	-45.537824	652.158109	1141.464675	-460.250434	814.082748	891.062565	-397.433562	-26.231318	1214.258901	-221.247418	147.749221	1217.144076	-383.439235	147.872868	1204.461883	-62.351644	155.085482	1168.999255	-325.066830	163.832025	1138.674389	-85.675076	11.820535	1248.088110	-165.747678	8.722814	1258.913459	-259.682322	41.276543	1087.889707	-33.253227	93.055198	1140.533497	-417.259917	111.402927	923.429299	-18.206267	166.473106	853.216558	-19.220227	179.870182	768.431364	-37.399735	200.631161	868.502196	-24.981568	234.269895	668.147430	-59.177754	216.620089	655.606097	-168.293008	178.575306	549.042039	-25.872257	190.587497	461.314734	-41.303892	157.292881	381.583765	-48.255103	221.343726	460.798701	-69.028953	134.246448	263.494126	-55.932805	155.772036	282.729099	-142.684892	60.704270	256.040128	-106.883894	339.414850	153.304968	-95.965722	243.593294	150.473859	-32.543523	198.098088	1081.831375	-411.462128	284.648727	1076.656462	-402.803009	294.737169	1106.184895	-382.053770	358.008735	1030.318298	-415.101126	463.916700	943.964343	-389.866529	467.137360	913.748717	-278.432936	248.970574	584.812333	-391.767104	274.965309	598.118499	-308.087013	173.271548	568.445496	-355.634990	372.162262	484.388684	-411.091013	412.577960	831.001704	-410.651899	383.316854	753.358913	-397.607324	317.429436	692.143014	-399.024642	400.879795	742.040038	-360.261075	454.252736	502.391731	-339.464833	-135.142994	943.201295	-222.022118	26.386535	84.362888	-426.184649	17.378030	80.337260	-27.957094	
1504	7.5200	554.123335	1379.615881	-75.532528	547.987427	1385.545221	-411.510268	531.531699	1453.560003	-240.911254	492.398549	1300.550127	-237.297343	626.035793	1136.320410	9.089886	802.845374	884.348977	-45.559099	652.315341	1141.484516	-460.196653	814.166490	891.058832	-397.552595	-26.773140	1214.544135	-221.853850	147.663208	1217.207562	-383.520062	146.762514	1205.386313	-62.543430	154.655477	1169.041594	-325.050317	162.867155	1139.512530	-85.556851	11.087536	1248.710453	-166.552384	8.221457	1259.168715	-260.418738	40.563707	1088.656031	-33.313350	92.837479	1140.450043	-417.395735	112.131691	924.340704	-18.492443	167.788037	854.764940	-19.247803	182.105719	770.177558	-37.668987	201.831254	870.275176	-24.920647	236.712755	670.047622	-59.120908	218.000475	658.384578	-169.357024	178.587290	551.731546	-25.788385	188.225545	463.753648	-41.626420	152.828049	385.020993	-48.547048	218.822815	462.568947	-69.507332	126.438871	267.458743	-56.446518	147.917585	286.404979	-143.283944	52.662248	260.503173	-107.160313	330.709121	156.350761	-96.146677	234.975828	153.954606	-32.656816	197.959153	1081.814773	-411.293906	284.480289	1076.474982	-402.239534	294.499971	1105.907741	-381.369320	357.844262	1030.029090	-414.205221	463.536468	943.036602	-388.004309	466.860633	913.001930	-277.588268	255.697658	579.596791	-391.662943	282.007857	593.571706	-307.030672	180.212221	562.050976	-355.604420	380.441556	481.347458	-411.059570	414.248470	829.154375	-410.021690	386.642750	751.012427	-397.220180	321.964277	688.366951	-398.607696	404.288456	740.019501	-359.731976	462.321300	500.577935	-339.383194	-135.150572	943.195349	-222.009665	26.382134	84.373295	-426.188506	17.385209	80.312748	-27.973332	
